<?xml version="1.0" standalone="no"?><!DOCTYPE svg PUBLIC "-//W3C//DTD SVG 1.1//EN" "http://www.w3.org/Graphics/SVG/1.1/DTD/svg11.dtd"><svg t="1690869562808" class="icon" viewBox="0 0 1024 1024" version="1.1" xmlns="http://www.w3.org/2000/svg" p-id="2705" width="128" height="128" xmlns:xlink="http://www.w3.org/1999/xlink"><path d="M845.9 414.5H362.4c-0.1-2.9-0.1-5.7-0.1-8.6 0-68 21.5-131.4 60.5-178.7 36.7-44.5 84.6-69 135-69s98.3 24.5 135 69c15.9 19.3 28.8 41.2 38.6 65 7.7 18.6 26 30.6 46.1 30.6 35.6 0 59.8-36.2 46.2-69.1-13.6-32.9-31.6-63.3-53.8-90.2-26.9-32.6-58.4-58.4-93.8-76.5-37.4-19.2-77.2-28.9-118.4-28.9s-81 9.7-118.4 28.9c-35.3 18.1-66.9 43.9-93.8 76.5-53.7 65.2-83.3 151.2-83.3 242.3 0 2.9 0 5.7 0.1 8.6h-18.6c-34.2 0-62 27.8-62 62v363.1c0 34.2 27.8 62 62 62h602.2c34.2 0 62-27.8 62-62v-363c0-34.3-27.8-62-62-62z m-68 387.1H311.7c-16.6 0-30-13.4-30-30V544.5c0-16.6 13.4-30 30-30h466.2c16.6 0 30 13.4 30 30v227.1c0 16.6-13.4 30-30 30z" fill="#80DEEA" opacity=".8" p-id="2706"></path><path d="M313 449.1m-54.9 0a54.9 54.9 0 1 0 109.8 0 54.9 54.9 0 1 0-109.8 0Z" fill="#54D2E3" opacity=".8" p-id="2707"></path><path d="M846.8 842.5m-54.9 0a54.9 54.9 0 1 0 109.8 0 54.9 54.9 0 1 0-109.8 0Z" fill="#54D2E3" opacity=".8" p-id="2708"></path><path d="M242.5 841.5m-54.9 0a54.9 54.9 0 1 0 109.8 0 54.9 54.9 0 1 0-109.8 0Z" fill="#54D2E3" opacity=".8" p-id="2709"></path><path d="M572.2 651.2v-41c0-6.6-5.4-12-12-12h-30.8c-6.6 0-12 5.4-12 12v41c-16.4 9.5-27.5 27.2-27.5 47.6 0 30.3 24.6 54.9 54.9 54.9s54.9-24.6 54.9-54.9c0-20.4-11.1-38.1-27.5-47.6z" fill="#80DEEA" p-id="2710"></path></svg>